<?xml version="1.0" encoding="UTF-8" standalone="no"?><!DOCTYPE svg PUBLIC "-//W3C//DTD SVG 1.1//EN" "http://www.w3.org/Graphics/SVG/1.1/DTD/svg11.dtd"><svg width="100%" height="100%" viewBox="0 0 2084 2084" version="1.1" xmlns="http://www.w3.org/2000/svg" xmlns:xlink="http://www.w3.org/1999/xlink" xml:space="preserve" xmlns:serif="http://www.serif.com/" style="fill-rule:evenodd;clip-rule:evenodd;stroke-linecap:round;stroke-linejoin:round;"><path id="polygon1" d="M152.671,1803.054l0,-1677.867l1674.483,1674.483l-432.662,0l-972.192,-972.192l0,970.871l-269.629,4.704Z" style="fill:#c6d8fb;fill-rule:nonzero;stroke:#005ab5;stroke-width:83.33px;"/><g id="g3"><rect id="rect1" x="92.219" y="1526.131" width="1883.001" height="411.727" style="fill:#82c7ff;"/><path d="M2058.554,1526.131l0,411.727c-0,46.024 -37.31,83.333 -83.333,83.333l-1883.001,0c-46.024,0 -83.333,-37.31 -83.333,-83.333l-0,-411.727c-0,-46.024 37.31,-83.333 83.333,-83.333l1883.001,0c46.024,-0 83.333,37.31 83.333,83.333Zm-83.333,0l-1883.001,0l0,411.727l1883.001,0l0,-411.727Z" style="fill:#005ab5;"/><path id="line1" d="M1666.393,1521.983l0,210.011" style="fill:none;fill-rule:nonzero;stroke:#5c5c5c;stroke-width:104.17px;stroke-linecap:butt;stroke-linejoin:miter;"/><path id="line2" d="M1253.501,1526.131l0,205.864" style="fill:none;fill-rule:nonzero;stroke:#5c5c5c;stroke-width:104.17px;stroke-linecap:butt;stroke-linejoin:miter;"/><path id="line3" d="M853.261,1488.552l-4.842,243.419" style="fill:none;fill-rule:nonzero;stroke:#5c5c5c;stroke-width:104.17px;stroke-linecap:butt;stroke-linejoin:miter;"/></g><g id="g6"><path id="rect3" d="M1665.146,742.984l-885.732,879.933c-1.654,1.643 -4.332,1.635 -5.975,-0.02l-359.661,-362.031c-1.643,-1.654 -1.635,-4.332 0.02,-5.975l885.732,-879.933c1.654,-1.643 4.332,-1.635 5.975,0.02l359.661,362.031c1.643,1.654 1.635,4.332 -0.02,5.975Z" style="fill:url(#_Linear1);stroke:#005ab5;stroke-width:83.33px;"/><path id="rect4" d="M1768.92,637.125l-99.44,99.251c-1.65,1.647 -4.328,1.645 -5.975,-0.006l-359.454,-360.139c-1.647,-1.65 -1.645,-4.328 0.006,-5.975l99.44,-99.251c1.65,-1.647 4.328,-1.645 5.975,0.006l359.454,360.139c1.647,1.65 1.645,4.328 -0.006,5.975Z" style="fill:url(#_Linear2);stroke:#005ab5;stroke-width:83.33px;"/><path id="rect5" d="M1972.231,434.745l-197.538,197.163c-1.65,1.647 -4.328,1.645 -5.975,-0.006l-358.671,-359.355c-1.647,-1.65 -1.645,-4.328 0.006,-5.975l197.538,-197.163c1.65,-1.647 4.328,-1.645 5.975,0.006l358.671,359.355c1.647,1.65 1.645,4.328 -0.006,5.975Z" style="fill:url(#_Radial3);stroke:#005ab5;stroke-width:83.33px;"/><path id="path5" d="M247.63,1789.343l163.388,-526.226l363.012,363.393l-526.4,162.833Z" style="fill:url(#_Linear4);fill-rule:nonzero;stroke:#005ab5;stroke-width:83.33px;"/><path id="path6" d="M247.63,1789.343l91.487,-286.61l171.713,206.779l-263.2,79.831Z" style="fill:#5c5c5c;fill-rule:nonzero;stroke:#5c5c5c;stroke-width:85.31px;"/></g><defs><linearGradient id="_Linear1" x1="0" y1="0" x2="1" y2="0" gradientUnits="userSpaceOnUse" gradientTransform="matrix(365.616371,368.026042,-891.726533,885.887904,856.664129,814.923817)"><stop offset="0" style="stop-color:#a2feff;stop-opacity:1"/><stop offset="1" style="stop-color:#2186ff;stop-opacity:1"/></linearGradient><linearGradient id="_Linear2" x1="0" y1="0" x2="1" y2="0" gradientUnits="userSpaceOnUse" gradientTransform="matrix(365.423074,366.119849,-105.420882,105.220252,1353.777082,320.630886)"><stop offset="0" style="stop-color:#ffe8b9;stop-opacity:1"/><stop offset="1" style="stop-color:#ff8d27;stop-opacity:1"/></linearGradient><radialGradient id="_Radial3" cx="0" cy="0" r="1" gradientUnits="userSpaceOnUse" gradientTransform="matrix(364.64011,365.335392,-203.51919,203.131866,1508.821258,167.990482)"><stop offset="0" style="stop-color:#fff88b;stop-opacity:1"/><stop offset="0.53" style="stop-color:#f44c26;stop-opacity:1"/><stop offset="1" style="stop-color:#f00c00;stop-opacity:1"/></radialGradient><linearGradient id="_Linear4" x1="0" y1="0" x2="1" y2="0" gradientUnits="userSpaceOnUse" gradientTransform="matrix(-363.012002,-363.393127,344.892577,-344.530855,601.58379,1798.775521)"><stop offset="0" style="stop-color:#f9b071;stop-opacity:1"/><stop offset="0.43" style="stop-color:#fbc89d;stop-opacity:1"/><stop offset="1" style="stop-color:#fff;stop-opacity:1"/></linearGradient></defs></svg>