<?xml version="1.0" encoding="UTF-8" standalone="no"?>
<svg
   viewBox="-2.015 -2 32 32"
   version="1.1"
   id="svg5"
   sodipodi:docname="zoomout.svg"
   inkscape:version="1.4 (e7c3feb100, 2024-10-09)"
   xmlns:inkscape="http://www.inkscape.org/namespaces/inkscape"
   xmlns:sodipodi="http://sodipodi.sourceforge.net/DTD/sodipodi-0.dtd"
   xmlns="http://www.w3.org/2000/svg"
   xmlns:svg="http://www.w3.org/2000/svg">
  <defs
     id="defs5" />
  <sodipodi:namedview
     id="namedview5"
     pagecolor="#ffffff"
     bordercolor="#000000"
     borderopacity="0.25"
     inkscape:showpageshadow="2"
     inkscape:pageopacity="0.0"
     inkscape:pagecheckerboard="false"
     inkscape:deskcolor="#d1d1d1"
     inkscape:zoom="17.25"
     inkscape:cx="16"
     inkscape:cy="16"
     inkscape:window-width="1366"
     inkscape:window-height="761"
     inkscape:window-x="0"
     inkscape:window-y="0"
     inkscape:window-maximized="1"
     inkscape:current-layer="svg5" />
  <g
     id="Capa_1"
     transform="translate(-0.0151003814697264, -5.3405761768488E-07)"
     style="enable-background:new 0 0 297 297">
    <g
       transform="matrix(0.0942760929465294, 0, 0, 0.0942760929465294, 0, 0)"
       id="g2">
      <g
         id="g1">
        <path
           d="M150.08, 100.079C150.078, 100.079 150.077, 100.079 150.075, 100.079L70.044, 100.12C64.543, 100.122 60.086, 104.583 60.089, 110.083C60.092, 115.582 64.55, 120.038 70.048, 120.038C70.05, 120.038 70.052, 120.038 70.054, 120.038L150.085, 119.998C155.585, 119.995 160.042, 115.534 160.039, 110.034C160.036, 104.535 155.578, 100.079 150.08, 100.079z"
           fill="#000000"
           class="Black"
           id="path1" />
      </g>
    </g>
  </g>
  <g
     id="g5"
     transform="translate(-0.0151, 0)"
     style="enable-background:new 0 0 297 297">
    <g
       transform="matrix(0.0942760929465294, 0, 0, 0.0942760929465294, 0, 0)"
       id="g4">
      <g
         id="g3">
        <path
           d="M288.985, 246.75L206.059, 163.745C229.428, 121.854 223.347, 67.804 187.814, 32.237C167.048, 11.449 139.436, 0 110.064, 0C80.691, 0 53.076, 11.449 32.306, 32.237C-10.558, 75.151 -10.557, 144.967 32.306, 187.871C53.076, 208.664 80.692, 220.114 110.064, 220.114C129.161, 220.114 147.51, 215.269 163.721, 206.17L246.611, 289.139C251.674, 294.208 258.426, 297 265.622, 297C272.818, 297 279.57, 294.208 284.635, 289.139L288.987, 284.784C299.461, 274.298 299.461, 257.236 288.985, 246.75zM46.398, 173.794C11.289, 138.651 11.289, 81.465 46.398, 46.315C63.404, 29.294 86.015, 19.918 110.064, 19.918C134.113, 19.918 156.72, 29.294 173.723, 46.314C208.839, 81.463 208.839, 138.65 173.723, 173.794C156.719, 190.818 134.113, 200.194 110.064, 200.194C86.015, 200.195 63.404, 190.819 46.398, 173.794zM274.894, 270.704L270.541, 275.06C269.24, 276.363 267.493, 277.081 265.621, 277.081C263.75, 277.081 262.004, 276.363 260.702, 275.061L180.382, 194.666C182.944, 192.525 185.427, 190.263 187.814, 187.872C190.207, 185.478 192.459, 182.995 194.585, 180.441L274.895, 260.827C277.567, 263.506 277.568, 268.027 274.894, 270.704z"
           fill="#000000"
           class="Black"
           id="path2" />
      </g>
    </g>
  </g>
</svg>
