<?xml version="1.0" encoding="UTF-8" standalone="no"?>
<svg
   viewBox="-2 -2 32 32"
   version="1.1"
   id="svg9"
   sodipodi:docname="blur.svg"
   inkscape:version="1.4 (86a8ad7, 2024-10-11)"
   xmlns:inkscape="http://www.inkscape.org/namespaces/inkscape"
   xmlns:sodipodi="http://sodipodi.sourceforge.net/DTD/sodipodi-0.dtd"
   xmlns="http://www.w3.org/2000/svg"
   xmlns:svg="http://www.w3.org/2000/svg">
  <defs
     id="defs9" />
  <sodipodi:namedview
     id="namedview9"
     pagecolor="#000000"
     bordercolor="#000000"
     borderopacity="0.25"
     inkscape:showpageshadow="2"
     inkscape:pageopacity="0.0"
     inkscape:pagecheckerboard="true"
     inkscape:deskcolor="#d1d1d1"
     inkscape:zoom="24.3125"
     inkscape:cx="15.979434"
     inkscape:cy="16"
     inkscape:window-width="1920"
     inkscape:window-height="996"
     inkscape:window-x="-9"
     inkscape:window-y="-9"
     inkscape:window-maximized="1"
     inkscape:current-layer="svg9" />
  <path
     d="M 14,0 C 6.2680135,-3.313709e-8 -3.3137089e-8,6.2680135 0,14 -3.3137089e-8,21.731987 6.2680135,28 14,28 21.731987,28 28,21.731987 28,14 28,6.2680135 21.731987,-3.3137087e-8 14,0 Z m 0,5.203125 c 0,-0.066142 0.926569,2.1384966 2.425781,4.2109375 1.433071,2.1606295 3.417603,4.1664705 3.814453,5.9082035 0.08819,0.39685 0.154297,0.816867 0.154297,1.257812 0.06614,3.461417 -2.823739,6.238281 -6.285156,6.238281 h -0.21875 c -3.461417,0 -6.3512982,-2.800301 -6.2851563,-6.261718 0,-0.440945 0.044061,-0.859009 0.1542969,-1.25586 C 8.156616,13.603143 10.163195,11.574692 11.574219,9.4140625 13.051384,7.3636688 13.97795,5.159031 14,5.203125 Z m -1.191406,4.0117188 c -0.04409,0.066141 -0.08676,0.1336403 -0.13086,0.1777343 -1.455118,2.2267719 -3.5275402,4.3428149 -3.9023434,6.0624999 -0.088188,0.396851 -0.1328125,0.838352 -0.1328125,1.279297 0.022047,0.925984 0.2646961,1.763503 0.6835938,2.535156 0.1102362,0.154333 0.2650283,0.242753 0.4414062,0.220703 0.3307049,-0.02205 0.5287669,-0.331136 0.3964849,-0.595703 -0.1763791,-0.39685 -0.3303429,-0.814914 -0.3964849,-1.255859 -0.08819,-0.440945 -0.1099376,-0.860399 -0.087891,-1.279297 0.066142,-1.76378 1.7634349,-4.144288 2.8437509,-6.5253906 0.110236,-0.1984252 0.196966,-0.4207155 0.285156,-0.6191406 z m -2.44336,10.4960932 c -0.280458,0.01122 -0.4993209,0.228338 -0.4882809,0.484375 0.011815,0.25449 0.2465999,0.450874 0.5253909,0.439454 0.279591,-0.01123 0.498081,-0.227126 0.488281,-0.482422 -0.01067,-0.255269 -0.245799,-0.452806 -0.525391,-0.441407 z"
     style="baseline-shift:baseline;display:inline;overflow:visible;vector-effect:none;fill:#ffffff;enable-background:accumulate;stop-color:#000000;stop-opacity:1;fill-opacity:1"
     id="path15" />
</svg>
