<?xml version="1.0" encoding="UTF-8" standalone="no"?>
<svg
   aria-hidden="true"
   focusable="false"
   role="img"
   class="iconify iconify--whh"
   width="1.01em"
   height="1em"
   preserveAspectRatio="xMidYMid meet"
   viewBox="0 0 1024 1023"
   style="transform: rotate(360deg);"
   version="1.1"
   id="svg1"
   sodipodi:docname="bucket.svg"
   inkscape:version="1.4 (86a8ad7, 2024-10-11)"
   xmlns:inkscape="http://www.inkscape.org/namespaces/inkscape"
   xmlns:sodipodi="http://sodipodi.sourceforge.net/DTD/sodipodi-0.dtd"
   xmlns="http://www.w3.org/2000/svg"
   xmlns:svg="http://www.w3.org/2000/svg">
  <defs
     id="defs1" />
  <sodipodi:namedview
     id="namedview1"
     pagecolor="#000000"
     bordercolor="#000000"
     borderopacity="0.25"
     inkscape:showpageshadow="2"
     inkscape:pageopacity="0.0"
     inkscape:pagecheckerboard="false"
     inkscape:deskcolor="#d1d1d1"
     inkscape:zoom="0.76050831"
     inkscape:cx="512.15745"
     inkscape:cy="511.5"
     inkscape:window-width="1920"
     inkscape:window-height="996"
     inkscape:window-x="-9"
     inkscape:window-y="-9"
     inkscape:window-maximized="1"
     inkscape:current-layer="svg1" />
  <path
     d="M996 990q-28 33-68 33t-68-33t-28-79t28-79l36-51V584q0 26-17 43L517 990q-34 33-81 33t-81-33L33 668Q0 634 0 587t33-81l287-286v100q0 53 37.5 90.5T448 448t90.5-37.5T576 320v-76l268 268h52q27 0 45.5 18.5T960 576v205l36 51q28 33 28 79t-28 79zM448.5 384q-26.5 0-45.5-19t-19-45V64q0-27 19-45.5T448.5 0t45 18.5T512 64v256q0 26-18.5 45t-45 19z"
     id="path1"
     style="fill:#ffffff;fill-opacity:1;fill-rule:nonzero" />
</svg>
