<?xml version="1.0" encoding="UTF-8" standalone="no"?>
<svg
   viewBox="-2 -2 32 32"
   version="1.1"
   id="svg1"
   sodipodi:docname="cancel.svg"
   inkscape:version="1.4 (86a8ad7, 2024-10-11)"
   xmlns:inkscape="http://www.inkscape.org/namespaces/inkscape"
   xmlns:sodipodi="http://sodipodi.sourceforge.net/DTD/sodipodi-0.dtd"
   xmlns="http://www.w3.org/2000/svg"
   xmlns:svg="http://www.w3.org/2000/svg">
  <defs
     id="defs1" />
  <sodipodi:namedview
     id="namedview1"
     pagecolor="#000000"
     bordercolor="#000000"
     borderopacity="0.25"
     inkscape:showpageshadow="2"
     inkscape:pageopacity="0.0"
     inkscape:pagecheckerboard="0"
     inkscape:deskcolor="#d1d1d1"
     inkscape:zoom="24.3125"
     inkscape:cx="15.979434"
     inkscape:cy="16"
     inkscape:window-width="1920"
     inkscape:window-height="996"
     inkscape:window-x="-9"
     inkscape:window-y="-9"
     inkscape:window-maximized="1"
     inkscape:current-layer="svg1" />
  <g
     id="Layer_1"
     transform="translate(-8.4, -8.4)"
     style="fill:#ffffff;fill-opacity:1">
    <g
       transform="matrix(1.4, 0, 0, 1.4, 0, 0)"
       id="g1"
       style="fill:#ffffff;fill-opacity:1">
      <path
         d="M19.1, 16L25.7, 9.4C26.1, 9 26.1, 8.4 25.7, 8L24, 6.3C23.6, 5.9 23, 5.9 22.6, 6.3L16, 12.9L9.4, 6.3C9, 5.9 8.4, 5.9 8, 6.3L6.3, 8C5.9, 8.4 5.9, 9 6.3, 9.4L12.9, 16L6.3, 22.6C5.9, 23 5.9, 23.6 6.3, 24L8, 25.7C8.4, 26.1 9, 26.1 9.4, 25.7L16, 19.1L22.6, 25.7C23, 26.1 23.6, 26.1 24, 25.7L25.7, 24C26.1, 23.6 26.1, 23 25.7, 22.6L19.1, 16z"
         id="path1"
         style="fill:#ffffff;fill-opacity:1" />
    </g>
  </g>
</svg>
