<?xml version="1.0" encoding="UTF-8" standalone="no"?>
<svg
   viewBox="-2.0025 -2.0025 32 32"
   version="1.1"
   id="svg2"
   sodipodi:docname="crop.svg"
   inkscape:version="1.4 (86a8ad7, 2024-10-11)"
   xmlns:inkscape="http://www.inkscape.org/namespaces/inkscape"
   xmlns:sodipodi="http://sodipodi.sourceforge.net/DTD/sodipodi-0.dtd"
   xmlns="http://www.w3.org/2000/svg"
   xmlns:svg="http://www.w3.org/2000/svg">
  <defs
     id="defs2" />
  <sodipodi:namedview
     id="namedview2"
     pagecolor="#000000"
     bordercolor="#000000"
     borderopacity="0.25"
     inkscape:showpageshadow="2"
     inkscape:pageopacity="0.0"
     inkscape:pagecheckerboard="true"
     inkscape:deskcolor="#d1d1d1"
     inkscape:zoom="24.3125"
     inkscape:cx="15.979434"
     inkscape:cy="16"
     inkscape:window-width="1920"
     inkscape:window-height="996"
     inkscape:window-x="-9"
     inkscape:window-y="-9"
     inkscape:window-maximized="1"
     inkscape:current-layer="svg2" />
  <g
     transform="translate(-0.0021, -0.0021)"
     id="g2"
     style="fill:#ffffff;fill-opacity:1">
    <g
       transform="matrix(0.0546875037252903, 0, 0, 0.0546875037252903, 0, 0)"
       id="g1"
       style="fill:#ffffff;fill-opacity:1">
      <path
         d="M128, 32C128, 14.3 113.7, 0 96, 0C78.3, 0 64, 14.3 64, 32L64, 64L32, 64C14.3, 64 0, 78.3 0, 96C0, 113.7 14.3, 128 32, 128L64, 128L64, 384C64, 419.3 92.7, 448 128, 448L352, 448L352, 384L128, 384L128, 32zM384, 480C384, 497.7 398.3, 512 416, 512C433.7, 512 448, 497.7 448, 480L448, 448L480, 448C497.7, 448 512, 433.7 512, 416C512, 398.3 497.7, 384 480, 384L448, 384L448, 128C448, 92.7 419.3, 64 384, 64L160, 64L160, 128L384, 128L384, 480z"
         id="path1"
         style="fill:#ffffff;fill-opacity:1" />
    </g>
  </g>
</svg>
