<?xml version="1.0" encoding="UTF-8" standalone="no"?>
<svg
   fill="none"
   height="14"
   viewBox="0 0 14 14"
   width="14"
   version="1.1"
   id="svg9"
   sodipodi:docname="edit-select-area-rectangle-dash.svg"
   inkscape:version="1.4 (86a8ad7, 2024-10-11)"
   xmlns:inkscape="http://www.inkscape.org/namespaces/inkscape"
   xmlns:sodipodi="http://sodipodi.sourceforge.net/DTD/sodipodi-0.dtd"
   xmlns="http://www.w3.org/2000/svg"
   xmlns:svg="http://www.w3.org/2000/svg">
  <defs
     id="defs9" />
  <sodipodi:namedview
     id="namedview9"
     pagecolor="#000000"
     bordercolor="#000000"
     borderopacity="0.25"
     inkscape:showpageshadow="2"
     inkscape:pageopacity="0.0"
     inkscape:pagecheckerboard="true"
     inkscape:deskcolor="#d1d1d1"
     inkscape:zoom="55.571429"
     inkscape:cx="7.0089974"
     inkscape:cy="7"
     inkscape:window-width="1920"
     inkscape:window-height="996"
     inkscape:window-x="-9"
     inkscape:window-y="-9"
     inkscape:window-maximized="1"
     inkscape:current-layer="svg9" />
  <clipPath
     id="a">
    <path
       d="m0 0h14v14h-14z"
       id="path1" />
  </clipPath>
  <g
     clip-path="url(#a)"
     stroke="#000001"
     stroke-linecap="round"
     stroke-linejoin="round"
     id="g9"
     style="fill:none;fill-opacity:1;stroke:#ffffff;stroke-opacity:1">
    <path
       d="m 11.5,0.5 h 1 c 0.2652,0 0.5196,0.105357 0.7071,0.292893 C 13.3946,0.98043 13.5,1.23478 13.5,1.5 v 1"
       id="path2"
       style="display:inline;fill:none;fill-opacity:1;stroke-linejoin:round;stroke-linecap:round;paint-order:normal;fill-rule:evenodd;stroke:#ffffff;stroke-opacity:1" />
    <path
       d="m.5 2.5v-1c0-.26522.105357-.51957.292893-.707107.187537-.187536.441887-.292893.707107-.292893h1"
       id="path3"
       style="fill:none;fill-opacity:1;stroke:#ffffff;stroke-opacity:1" />
    <path
       d="m5.5.5h3"
       id="path4"
       style="fill:none;fill-opacity:1;stroke:#ffffff;stroke-opacity:1" />
    <path
       d="m13.5 5.5v3"
       id="path5"
       style="fill:none;fill-opacity:1;stroke:#ffffff;stroke-opacity:1" />
    <path
       d="m.5 5.5v3"
       id="path6"
       style="fill:none;fill-opacity:1;stroke:#ffffff;stroke-opacity:1" />
    <path
       d="m11.5 13.5h1c.2652 0 .5196-.1054.7071-.2929s.2929-.4419.2929-.7071v-1"
       id="path7"
       style="fill:none;fill-opacity:1;stroke:#ffffff;stroke-opacity:1" />
    <path
       d="m.5 11.5v1c0 .2652.105357.5196.292893.7071.187537.1875.441887.2929.707107.2929h1"
       id="path8"
       style="fill:none;fill-opacity:1;stroke:#ffffff;stroke-opacity:1" />
    <path
       d="m5.5 13.5h3"
       id="path9"
       style="fill:none;fill-opacity:1;stroke:#ffffff;stroke-opacity:1" />
  </g>
</svg>
