<?xml version="1.0" encoding="UTF-8" standalone="no"?>
<svg
   viewBox="-2 -4 32 32"
   version="1.1"
   id="svg7"
   sodipodi:docname="image.svg"
   inkscape:version="1.4 (86a8ad7, 2024-10-11)"
   xmlns:inkscape="http://www.inkscape.org/namespaces/inkscape"
   xmlns:sodipodi="http://sodipodi.sourceforge.net/DTD/sodipodi-0.dtd"
   xmlns="http://www.w3.org/2000/svg"
   xmlns:svg="http://www.w3.org/2000/svg">
  <defs
     id="defs7" />
  <sodipodi:namedview
     id="namedview7"
     pagecolor="#000000"
     bordercolor="#000000"
     borderopacity="0.25"
     inkscape:showpageshadow="2"
     inkscape:pageopacity="0.0"
     inkscape:pagecheckerboard="0"
     inkscape:deskcolor="#d1d1d1"
     inkscape:zoom="24.3125"
     inkscape:cx="15.979434"
     inkscape:cy="16"
     inkscape:window-width="1920"
     inkscape:window-height="996"
     inkscape:window-x="-9"
     inkscape:window-y="-9"
     inkscape:window-maximized="1"
     inkscape:current-layer="svg7" />
  <g
     id="Layer_1"
     transform="translate(-2, -4)"
     style="enable-background:new 0 0 32 32">
    <g
       id="Image">
      <path
         d="M29, 4L3, 4C2.5, 4 2, 4.5 2, 5L2, 27C2, 27.5 2.5, 28 3, 28L29, 28C29.5, 28 30, 27.5 30, 27L30, 5C30, 4.5 29.5, 4 29, 4zM28, 26L4, 26L4, 6L28, 6L28, 26z"
         fill="#FFFFFF"
         class="Black"
         id="path1" />
    </g>
  </g>
  <g
     id="g2"
     transform="translate(-2, -4)"
     style="enable-background:new 0 0 32 32">
    <g
       id="g1">
      <circle
         cx="21"
         cy="11"
         r="3"
         fill="#FFB115"
         class="Yellow"
         id="circle1" />
    </g>
  </g>
  <g
     id="g4"
     transform="translate(-2, -4)"
     style="enable-background:new 0 0 32 32">
    <g
       id="g3">
      <polygon
         points="20,24 10,14 6,18 6,24  "
         fill="#039C23"
         class="Green"
         id="polygon2" />
    </g>
  </g>
  <g
     id="g7"
     transform="translate(-2, -4)"
     style="enable-background:new 0 0 32 32">
    <g
       id="g6">
      <g
         class="st1"
         id="g5">
        <polygon
           points="22,24 18,20 20,18 26,24   "
           fill="#039C23"
           class="Green"
           id="polygon4" />
      </g>
    </g>
  </g>
</svg>
