<?xml version="1.0" encoding="UTF-8" standalone="no"?>
<svg
   viewBox="-5.82 -2 32 32"
   version="1.1"
   id="svg12"
   sodipodi:docname="inspection.svg"
   inkscape:version="1.4 (86a8ad7, 2024-10-11)"
   xmlns:inkscape="http://www.inkscape.org/namespaces/inkscape"
   xmlns:sodipodi="http://sodipodi.sourceforge.net/DTD/sodipodi-0.dtd"
   xmlns="http://www.w3.org/2000/svg"
   xmlns:svg="http://www.w3.org/2000/svg">
  <defs
     id="defs12" />
  <sodipodi:namedview
     id="namedview12"
     pagecolor="#000000"
     bordercolor="#000000"
     borderopacity="0.25"
     inkscape:showpageshadow="2"
     inkscape:pageopacity="0.0"
     inkscape:pagecheckerboard="0"
     inkscape:deskcolor="#d1d1d1"
     inkscape:zoom="24.3125"
     inkscape:cx="15.979434"
     inkscape:cy="16"
     inkscape:window-width="1920"
     inkscape:window-height="996"
     inkscape:window-x="-9"
     inkscape:window-y="-9"
     inkscape:window-maximized="1"
     inkscape:current-layer="g6" />
  <g
     transform="translate(-5.0927, -3.43322753781905E-07)"
     id="g2">
    <g
       transform="matrix(0.636363804340363, 0, 0, 0.636363804340363, 0, 0)"
       id="g1">
      <path
         d="M36, 4L26, 4C26, 5.1 25.1, 6 24, 6C22.9, 6 22, 5.1 22, 4L12, 4C9.8, 4 8, 5.8 8, 8L8, 40C8, 42.2 9.8, 44 12, 44L36, 44C38.2, 44 40, 42.2 40, 40L40, 8C40, 5.8 38.2, 4 36, 4z"
         fill="#455A64"
         id="path1"
         style="fill:#d2e8ed;fill-opacity:1" />
    </g>
  </g>
  <g
     transform="translate(-5.09270020980835, -5.53131103586679E-07)"
     id="g4">
    <g
       transform="matrix(0.636363804340363, 0, 0, 0.636363804340363, 0, 0)"
       id="g3">
      <path
         d="M36, 41L12, 41C11.4, 41 11, 40.6 11, 40L11, 8C11, 7.4 11.4, 7 12, 7L36, 7C36.6, 7 37, 7.4 37, 8L37, 40C37, 40.6 36.6, 41 36, 41z"
         fill="#fff"
         id="path2"
         style="fill:#734f4f;fill-opacity:1" />
    </g>
  </g>
  <g
     transform="translate(-5.09270007629395, -3.43322753781905E-07)"
     id="g7">
    <g
       transform="matrix(0.636363804340363, 0, 0, 0.636363804340363, 0, 0)"
       id="g6">
      <g
         fill="#90A4AE"
         id="g5">
        <path
           d="M26, 4C26, 5.1 25.1, 6 24, 6C22.9, 6 22, 5.1 22, 4L15, 4L15, 8C15, 9.1 15.9, 10 17, 10L31, 10C32.1, 10 33, 9.1 33, 8L33, 4L26, 4z"
           fill="#90A4AE"
           id="path4"
           style="fill:#90a4ae;fill-opacity:1" />
      </g>
    </g>
  </g>
  <g
     transform="translate(-5.09270072479248, 0)"
     id="g10">
    <g
       transform="matrix(0.636363804340363, 0, 0, 0.636363804340363, 0, 0)"
       id="g9">
      <g
         fill="#90A4AE"
         id="g8">
        <path
           d="M24, 0C21.8, 0 20, 1.8 20, 4C20, 6.2 21.8, 8 24, 8C26.2, 8 28, 6.2 28, 4C28, 1.8 26.2, 0 24, 0zM24, 6C22.9, 6 22, 5.1 22, 4C22, 2.9 22.9, 2 24, 2C25.1, 2 26, 2.9 26, 4C26, 5.1 25.1, 6 24, 6z"
           fill="#90A4AE"
           id="path7" />
      </g>
    </g>
  </g>
  <g
     transform="translate(-5.09269992523193, 3.20434576650541E-08)"
     id="g12">
    <g
       transform="matrix(0.636363804340363, 0, 0, 0.636363804340363, 0, 0)"
       id="g11">
      <polygon
         points="30.6,18.6 21.6,27.6 17.4,23.3 14.9,25.8 21.7,32.5 33.1,21.1"
         fill="#4CAF50"
         id="polygon10"
         style="fill:#a6dda7;fill-opacity:1" />
    </g>
  </g>
</svg>
