<?xml version="1.0" encoding="UTF-8" standalone="no"?>
<svg
   viewBox="-6 -4 32 32"
   version="1.1"
   id="svg4"
   sodipodi:docname="new.svg"
   inkscape:version="1.4 (86a8ad7, 2024-10-11)"
   xmlns:inkscape="http://www.inkscape.org/namespaces/inkscape"
   xmlns:sodipodi="http://sodipodi.sourceforge.net/DTD/sodipodi-0.dtd"
   xmlns="http://www.w3.org/2000/svg"
   xmlns:svg="http://www.w3.org/2000/svg">
  <defs
     id="defs4" />
  <sodipodi:namedview
     id="namedview4"
     pagecolor="#ffffff"
     bordercolor="#000000"
     borderopacity="0.25"
     inkscape:showpageshadow="2"
     inkscape:pageopacity="0.0"
     inkscape:pagecheckerboard="true"
     inkscape:deskcolor="#d1d1d1"
     inkscape:zoom="24.3125"
     inkscape:cx="15.979434"
     inkscape:cy="16"
     inkscape:window-width="1920"
     inkscape:window-height="996"
     inkscape:window-x="-9"
     inkscape:window-y="-9"
     inkscape:window-maximized="1"
     inkscape:current-layer="svg4" />
  <g
     id="Layer_1"
     transform="translate(-6, -4)"
     style="enable-background:new 0 0 32 32">
    <g
       id="New">
      <g
         id="g1">
        <path
           d="M19, 4L7, 4C6.4, 4 6, 4.4 6, 5L6, 27C6, 27.6 6.4, 28 7, 28L25, 28C25.6, 28 26, 27.6 26, 27L26, 11L19, 4zM24, 26L8, 26L8, 6L18, 6L18, 11C18, 11.6 18.4, 12 19, 12L24, 12L24, 26z"
           fill="#FFFFFF"
           class="Black"
           id="path1" />
      </g>
    </g>
  </g>
  <g
     id="g4"
     transform="translate(-6, -4)"
     style="enable-background:new 0 0 32 32">
    <g
       id="g3">
      <g
         id="g2">
        <path
           d="M19, 4L7, 4C6.4, 4 6, 4.4 6, 5L6, 27C6, 27.6 6.4, 28 7, 28L25, 28C25.6, 28 26, 27.6 26, 27L26, 11L19, 4zM24, 26L8, 26L8, 6L18, 6L18, 11C18, 11.6 18.4, 12 19, 12L24, 12L24, 26z"
           fill="#FFFFFF"
           class="Black"
           id="path2" />
      </g>
    </g>
  </g>
</svg>
