<?xml version="1.0" encoding="UTF-8" standalone="no"?>
<svg
   viewBox="-2 -2.855 32 32"
   version="1.1"
   id="svg1"
   sodipodi:docname="pan.svg"
   inkscape:version="1.4 (86a8ad7, 2024-10-11)"
   xmlns:inkscape="http://www.inkscape.org/namespaces/inkscape"
   xmlns:sodipodi="http://sodipodi.sourceforge.net/DTD/sodipodi-0.dtd"
   xmlns="http://www.w3.org/2000/svg"
   xmlns:svg="http://www.w3.org/2000/svg">
  <defs
     id="defs1" />
  <sodipodi:namedview
     id="namedview1"
     pagecolor="#000000"
     bordercolor="#000000"
     borderopacity="0.25"
     inkscape:showpageshadow="2"
     inkscape:pageopacity="0.0"
     inkscape:pagecheckerboard="true"
     inkscape:deskcolor="#d1d1d1"
     inkscape:zoom="24.3125"
     inkscape:cx="15.979434"
     inkscape:cy="16"
     inkscape:window-width="1920"
     inkscape:window-height="996"
     inkscape:window-x="-9"
     inkscape:window-y="-9"
     inkscape:window-maximized="1"
     inkscape:current-layer="svg1" />
  <g
     id="Layer_1"
     transform="translate(0, 0.0196)"
     style="enable-background:new 0 0 32 32;fill:#ffffff;fill-opacity:1">
    <g
       transform="matrix(0.875683128833771, 0, 0, 0.875683128833771, 0, 0)"
       id="g1"
       style="fill:#ffffff;fill-opacity:1">
      <path
         d="M31.1, 8.3C30, 7.6 28.6, 8.1 28.2, 9.2L26.3, 13.3C26.1, 13.7 25.7, 13.9 25.3, 13.9L25.3, 13.9C24.6, 13.9 24.1, 13.3 24.3, 12.6L26, 4.4C26.2, 3.3 25.6, 2.3 24.5, 2C23.4, 1.8 22.4, 2.4 22.1, 3.5L20.2, 11.1C20.1, 11.6 19.7, 11.9 19.2, 11.9L19.1, 11.9C18.5, 11.9 18, 11.4 18, 10.8L18, 2.1C18, 1.1 17.3, 0.2 16.4, 0C15.1, -0.2 14, 0.8 14, 2L14, 10.9C14, 11.5 13.5, 12 12.9, 12L12.8, 12C12.3, 12 11.9, 11.7 11.8, 11.2L10, 3.6C9.7, 2.4 8.4, 1.7 7.3, 2.2C6.3, 2.5 5.9, 3.6 6.1, 4.6L8.6, 15.9C8.8, 16.7 7.9, 17.4 7.1, 17L3.1, 14.4C2.3, 13.9 1.3, 14 0.6, 14.7C-0.2, 15.5 -0.2, 16.8 0.6, 17.6L10.9, 28C12.1, 29.3 13.9, 30 15.8, 30L20, 30C22.9, 30 24.7, 28 25.9, 25.2L31.8, 10.9C32.2, 10 31.9, 8.9 31.1, 8.3z"
         fill="#FFFFFF"
         id="path1"
         style="fill:#ffffff;fill-opacity:1" />
    </g>
  </g>
</svg>
