<?xml version="1.0" encoding="UTF-8" standalone="no"?>
<svg
   viewBox="-2 -2 32 32"
   version="1.1"
   id="svg4"
   sodipodi:docname="print.svg"
   inkscape:version="1.4 (86a8ad7, 2024-10-11)"
   xmlns:inkscape="http://www.inkscape.org/namespaces/inkscape"
   xmlns:sodipodi="http://sodipodi.sourceforge.net/DTD/sodipodi-0.dtd"
   xmlns="http://www.w3.org/2000/svg"
   xmlns:svg="http://www.w3.org/2000/svg">
  <defs
     id="defs4" />
  <sodipodi:namedview
     id="namedview4"
     pagecolor="#000000"
     bordercolor="#000000"
     borderopacity="0.25"
     inkscape:showpageshadow="2"
     inkscape:pageopacity="0.0"
     inkscape:pagecheckerboard="true"
     inkscape:deskcolor="#d1d1d1"
     inkscape:zoom="24.3125"
     inkscape:cx="15.979434"
     inkscape:cy="16"
     inkscape:window-width="1920"
     inkscape:window-height="996"
     inkscape:window-x="-9"
     inkscape:window-y="-9"
     inkscape:window-maximized="1"
     inkscape:current-layer="svg4" />
  <g
     id="Layer_1"
     transform="translate(-2, -2)"
     style="enable-background:new 0 0 32 32;fill:#ffffff;fill-opacity:1">
    <g
       id="Printer"
       style="fill:#ffffff;fill-opacity:1">
      <g
         id="g1"
         style="fill:#ffffff;fill-opacity:1">
        <polygon
           points="10,4 22,4 22,12 24,12 24,2 8,2 8,12 10,12   "
           fill="#FFFFFF"
           class="Black"
           id="polygon1"
           style="fill:#ffffff;fill-opacity:1" />
      </g>
    </g>
  </g>
  <g
     id="g4"
     transform="translate(-2, -2.00000095367432)"
     style="enable-background:new 0 0 32 32;fill:#ffffff;fill-opacity:1">
    <g
       id="g3"
       style="fill:#ffffff;fill-opacity:1">
      <g
         id="g2"
         style="fill:#ffffff;fill-opacity:1">
        <path
           d="M28, 10L26, 10L26, 13C26, 13.6 25.6, 14 25, 14L7, 14C6.4, 14 6, 13.6 6, 13L6, 10L4, 10C2.9, 10 2, 10.9 2, 12L2, 24C2, 25.1 2.9, 26 4, 26L8, 26L8, 30L24, 30L24, 26L28, 26C29.1, 26 30, 25.1 30, 24L30, 12C30, 10.9 29.1, 10 28, 10zM22, 24L22, 26L22, 28L10, 28L10, 26L10, 24L10, 20L22, 20L22, 24z"
           fill="#FFFFFF"
           class="Black"
           id="path1"
           style="fill:#ffffff;fill-opacity:1" />
      </g>
    </g>
  </g>
</svg>
