<?xml version="1.0" encoding="UTF-8" standalone="no"?>
<svg
   viewBox="-2 -5.4009 32 32"
   version="1.1"
   id="svg2"
   sodipodi:docname="roundrectangle.svg"
   inkscape:version="1.4 (86a8ad7, 2024-10-11)"
   xmlns:inkscape="http://www.inkscape.org/namespaces/inkscape"
   xmlns:sodipodi="http://sodipodi.sourceforge.net/DTD/sodipodi-0.dtd"
   xmlns="http://www.w3.org/2000/svg"
   xmlns:svg="http://www.w3.org/2000/svg">
  <defs
     id="defs2" />
  <sodipodi:namedview
     id="namedview2"
     pagecolor="#000000"
     bordercolor="#FFFFFF"
     borderopacity="0.25"
     inkscape:showpageshadow="2"
     inkscape:pageopacity="0.0"
     inkscape:pagecheckerboard="true"
     inkscape:deskcolor="#d1d1d1"
     inkscape:zoom="24.3125"
     inkscape:cx="15.979434"
     inkscape:cy="16"
     inkscape:window-width="1920"
     inkscape:window-height="996"
     inkscape:window-x="-9"
     inkscape:window-y="-9"
     inkscape:window-maximized="1"
     inkscape:current-layer="svg2" />
  <g
     transform="translate(-1.5048977350235, -4.9878532699585)"
     id="g2"
     style="stroke:none;stroke-opacity:1;fill:#ffffff;fill-opacity:1">
    <g
       transform="matrix(0.0623481683433056, 0, 0, 0.0623481683433056, 0, 0)"
       id="g1"
       style="stroke:none;stroke-opacity:1;fill:#ffffff;fill-opacity:1">
      <path
         d="m 118.02132,79.991827 c -51.66714,0 -93.88432,42.217183 -93.88432,93.884323 V 326.121 c 0,51.66714 42.21718,93.88432 93.88432,93.88432 h 261.32234 c 51.66714,0 93.88432,-42.21718 93.88432,-93.88432 V 173.87615 c 0,-51.66714 -42.21718,-93.884323 -93.88432,-93.884323 z m 0,40.003433 h 261.32234 c 30.19903,0 53.88089,23.68186 53.88089,53.88089 V 326.121 c 0,30.19903 -23.68186,53.88089 -53.88089,53.88089 H 118.02132 c -30.199029,0 -53.880889,-23.68186 -53.880889,-53.88089 V 173.87615 c 0,-30.19903 23.68186,-53.88089 53.880889,-53.88089 z"
         style="fill:#ffffff;stroke:none;fill-opacity:1"
         id="path5" />
    </g>
  </g>
</svg>
