<?xml version="1.0" encoding="UTF-8" standalone="no"?>
<svg
   viewBox="-2 -2 32 32"
   version="1.1"
   id="svg13"
   sodipodi:docname="save.svg"
   inkscape:version="1.4 (86a8ad7, 2024-10-11)"
   xmlns:inkscape="http://www.inkscape.org/namespaces/inkscape"
   xmlns:sodipodi="http://sodipodi.sourceforge.net/DTD/sodipodi-0.dtd"
   xmlns="http://www.w3.org/2000/svg"
   xmlns:svg="http://www.w3.org/2000/svg">
  <defs
     id="defs13" />
  <sodipodi:namedview
     id="namedview13"
     pagecolor="#050505"
     bordercolor="#000000"
     borderopacity="0.25"
     inkscape:showpageshadow="2"
     inkscape:pageopacity="0.0"
     inkscape:pagecheckerboard="true"
     inkscape:deskcolor="#d1d1d1"
     inkscape:zoom="24.3125"
     inkscape:cx="15.979434"
     inkscape:cy="16"
     inkscape:window-width="1920"
     inkscape:window-height="996"
     inkscape:window-x="-9"
     inkscape:window-y="-9"
     inkscape:window-maximized="1"
     inkscape:current-layer="svg13" />
  <g
     id="Layer_1"
     transform="translate(-2, -2)"
     style="fill:#ffffff;fill-opacity:1">
    <g
       transform="matrix(2, 0, 0, 2, 0, 0)"
       id="g1"
       style="fill:#ffffff;fill-opacity:1">
      <rect
         x="8"
         y="1"
         width="3"
         height="3"
         rx="0"
         ry="0"
         fill="#FFFFFF"
         id="rect1"
         style="fill:#ffffff;fill-opacity:1" />
    </g>
  </g>
  <g
     id="g5"
     transform="translate(-2, -2)">
    <g
       transform="matrix(2, 0, 0, 2, 0, 0)"
       id="g4">
      <g
         id="g3">
        <g
           id="g2">
          <path
             d="M13, 1L12, 1L12, 5L4, 5L4, 1L1, 1L1, 15L15, 15L15, 3L13, 1zM12, 13L4, 13L4, 8L12, 8L12, 13z"
             fill="#FFFFFF"
             id="path1" />
        </g>
      </g>
    </g>
  </g>
  <g
     id="g9"
     transform="translate(-2, -2)"
     style="fill:#ffffff;fill-opacity:1">
    <g
       transform="matrix(2, 0, 0, 2, 0, 0)"
       id="g8"
       style="fill:#ffffff;fill-opacity:1">
      <g
         id="g7"
         style="fill:#ffffff;fill-opacity:1">
        <g
           id="g6"
           style="fill:#ffffff;fill-opacity:1">
          <path
             d="M13, 1L12, 1L12, 5L4, 5L4, 1L1, 1L1, 15L15, 15L15, 3L13, 1zM12, 13L4, 13L4, 8L12, 8L12, 13z"
             fill="#FFFFFF"
             id="path5"
             style="fill:#ffffff;fill-opacity:1" />
        </g>
      </g>
    </g>
  </g>
  <g
     id="g11"
     transform="translate(-2, -2)"
     style="fill:#ffffff;fill-opacity:1">
    <g
       transform="matrix(2, 0, 0, 2, 0, 0)"
       id="g10"
       style="fill:#ffffff;fill-opacity:1">
      <rect
         x="5"
         y="9"
         width="6"
         height="1"
         rx="0"
         ry="0"
         fill="#FFFFFF"
         id="rect9"
         style="fill:#ffffff;fill-opacity:1" />
    </g>
  </g>
  <g
     id="g13"
     transform="translate(-2, -2)"
     style="fill:#ffffff;fill-opacity:1">
    <g
       transform="matrix(2, 0, 0, 2, 0, 0)"
       id="g12"
       style="fill:#ffffff;fill-opacity:1">
      <rect
         x="5"
         y="11"
         width="6"
         height="1"
         rx="0"
         ry="0"
         fill="#FFFFFF"
         id="rect11"
         style="fill:#ffffff;fill-opacity:1" />
    </g>
  </g>
</svg>
