<?xml version="1.0" encoding="UTF-8" standalone="no"?>
<svg
   viewBox="-2 -4.3075 32 32"
   version="1.1"
   id="svg36"
   sodipodi:docname="themelight.svg"
   inkscape:version="1.4 (86a8ad7, 2024-10-11)"
   xmlns:inkscape="http://www.inkscape.org/namespaces/inkscape"
   xmlns:sodipodi="http://sodipodi.sourceforge.net/DTD/sodipodi-0.dtd"
   xmlns="http://www.w3.org/2000/svg"
   xmlns:svg="http://www.w3.org/2000/svg">
  <defs
     id="defs36" />
  <sodipodi:namedview
     id="namedview36"
     pagecolor="#050505"
     bordercolor="#000000"
     borderopacity="0.25"
     inkscape:showpageshadow="2"
     inkscape:pageopacity="0.0"
     inkscape:pagecheckerboard="true"
     inkscape:deskcolor="#d1d1d1"
     inkscape:zoom="24.3125"
     inkscape:cx="15.979434"
     inkscape:cy="18.015424"
     inkscape:window-width="1920"
     inkscape:window-height="996"
     inkscape:window-x="-9"
     inkscape:window-y="-9"
     inkscape:window-maximized="1"
     inkscape:current-layer="svg36" />
  <g
     id="Layer_1"
     transform="translate(0, -2.3075)"
     style="enable-background:new 0 0 512 512">
    <g
       transform="matrix(0.8749, 0, 0, 0.8749, 0, 0)"
       id="g4">
      <g
         transform="matrix(1.1426, 0, 0, 1.1426, 0, 0)"
         id="g3">
        <g
           transform="matrix(0.0547, 0, 0, 0.0547, 0, 0)"
           id="g2">
          <g
             id="g1">
            <path
               d="M468.364, 368L468.364, 391.273C468.364, 396.093 472.272, 400 477.091, 400C481.911, 400 485.818, 396.092 485.818, 391.273L485.818, 368L468.364, 368z"
               fill="#FFFFFF"
               fill-opacity="1"
               class="Black"
               id="path1" />
          </g>
        </g>
      </g>
    </g>
  </g>
  <g
     id="g9"
     transform="translate(0, -2.3075)"
     style="enable-background:new 0 0 512 512">
    <g
       transform="matrix(0.8749, 0, 0, 0.8749, 0, 0)"
       id="g8">
      <g
         transform="matrix(1.1426, 0, 0, 1.1426, 0, 0)"
         id="g7">
        <g
           transform="matrix(0.0547, 0, 0, 0.0547, 0, 0)"
           id="g6">
          <g
             id="g5">
            <path
               d="M433.455, 391.273C433.455, 396.093 437.363, 400 442.182, 400C447.002, 400 450.909, 396.092 450.909, 391.273L450.909, 368L433.454, 368L433.454, 391.273z"
               fill="#FFFFFF"
               fill-opacity="1"
               class="Black"
               id="path4" />
          </g>
        </g>
      </g>
    </g>
  </g>
  <g
     id="g14"
     transform="translate(0, -2.3075)"
     style="enable-background:new 0 0 512 512">
    <g
       transform="matrix(0.8749, 0, 0, 0.8749, 0, 0)"
       id="g13">
      <g
         transform="matrix(1.1426, 0, 0, 1.1426, 0, 0)"
         id="g12">
        <g
           transform="matrix(0.0547, 0, 0, 0.0547, 0, 0)"
           id="g11">
          <g
             id="g10">
            <path
               d="M398.545, 391.273C398.545, 396.093 402.453, 400 407.272, 400C412.092, 400 415.999, 396.092 415.999, 391.273L415.999, 368L398.544, 368L398.544, 391.273z"
               fill="#FFFFFF"
               fill-opacity="1"
               class="Black"
               id="path9" />
          </g>
        </g>
      </g>
    </g>
  </g>
  <g
     id="g19"
     transform="translate(0, -2.3075)"
     style="enable-background:new 0 0 512 512">
    <g
       transform="matrix(0.8749, 0, 0, 0.8749, 0, 0)"
       id="g18">
      <g
         transform="matrix(1.1426, 0, 0, 1.1426, 0, 0)"
         id="g17">
        <g
           transform="matrix(0.0547, 0, 0, 0.0547, 0, 0)"
           id="g16">
          <g
             id="g15">
            <rect
               x="226.909"
               y="344.727"
               width="58.182"
               height="116.364"
               rx="0"
               ry="0"
               fill="#FFFFFF"
               fill-opacity="1"
               class="Black"
               id="rect14" />
          </g>
        </g>
      </g>
    </g>
  </g>
  <g
     id="g23"
     transform="translate(0, -2.3075)"
     style="enable-background:new 0 0 512 512">
    <g
       transform="matrix(0.8749, 0, 0, 0.8749, 0, 0)"
       id="g22">
      <g
         transform="matrix(1.1426, 0, 0, 1.1426, 0, 0)"
         id="g21">
        <g
           transform="matrix(0.0547, 0, 0, 0.0547, 0, 0)"
           id="g20">
          <path
             d="M512, 368C512, 374.4 506.764, 379.636 500.364, 379.636L11.636, 379.636C5.236, 379.636 0, 374.4 0, 368L0, 53.818C0, 47.418 5.236, 42.182 11.636, 42.182L500.363, 42.182C506.763, 42.182 511.999, 47.418 511.999, 53.818L511.999, 368z"
             fill="#FFFFFF"
             fill-opacity="1"
             class="Black"
             id="path19" />
        </g>
      </g>
    </g>
  </g>
  <g
     id="g27"
     transform="translate(0, -2.3075)"
     style="enable-background:new 0 0 512 512;fill:#8395cd;fill-opacity:1">
    <g
       transform="matrix(0.8749, 0, 0, 0.8749, 0, 0)"
       id="g26"
       style="fill:#8395cd;fill-opacity:1">
      <g
         transform="matrix(1.1426, 0, 0, 1.1426, 0, 0)"
         id="g25"
         style="fill:#8395cd;fill-opacity:1">
        <g
           transform="matrix(0.0547, 0, 0, 0.0547, 0, 0)"
           id="g24"
           style="fill:#8395cd;fill-opacity:1">
          <rect
             x="34.909"
             y="77.091"
             width="442.182"
             height="267.636"
             rx="0"
             ry="0"
             fill="#FFFFFF"
             fill-opacity="1"
             class="White"
             id="rect23"
             style="fill:#8395cd;fill-opacity:1" />
        </g>
      </g>
    </g>
  </g>
  <g
     id="g31"
     transform="translate(0, -2.3075)"
     style="enable-background:new 0 0 512 512">
    <g
       transform="matrix(0.8749, 0, 0, 0.8749, 0, 0)"
       id="g30">
      <g
         transform="matrix(1.1426, 0, 0, 1.1426, 0, 0)"
         id="g29">
        <g
           transform="matrix(0.0547, 0, 0, 0.0547, 0, 0)"
           id="g28">
          <path
             d="M395.636, 469.818L116.364, 469.818C111.544, 469.818 107.637, 465.91 107.637, 461.091C107.637, 456.271 111.544, 452.364 116.364, 452.364L395.637, 452.364C400.457, 452.364 404.364, 456.272 404.364, 461.091C404.364, 465.911 400.456, 469.818 395.636, 469.818z"
             fill="#FFFFFF"
             fill-opacity="1"
             class="Black"
             id="path27" />
        </g>
      </g>
    </g>
  </g>
  <g
     id="g33"
     transform="translate(6, 1.6925)"
     style="enable-background:new 0 0 32 32;fill:#ffffff;fill-opacity:1">
    <g
       transform="matrix(0.5, 0, 0, 0.5, 0, 0)"
       id="g32"
       style="fill:#ffffff;fill-opacity:1">
      <g
         id="Window"
         style="fill:#ffffff;fill-opacity:1">
        <path
           d="M30, 10L30, 5C30, 4.5 29.5, 4 29, 4L3, 4C2.5, 4 2, 4.5 2, 5L2, 10L30, 10z"
           fill="#FFFFFF"
           class="Black"
           id="path31"
           style="fill:#ffffff;fill-opacity:1" />
      </g>
    </g>
  </g>
  <g
     id="g36"
     transform="translate(6, 1.6925)"
     style="enable-background:new 0 0 32 32;fill:#ffffff;fill-opacity:1">
    <g
       transform="matrix(0.5, 0, 0, 0.5, 0, 0)"
       id="g35"
       style="fill:#ffffff;fill-opacity:1">
      <g
         id="g34"
         style="fill:#ffffff;fill-opacity:1">
        <path
           d="M28, 10L28, 26L4, 26L4, 10L2, 10L2, 27C2, 27.5 2.5, 28 3, 28L29, 28C29.5, 28 30, 27.5 30, 27L30, 10L28, 10z"
           fill="#FFFFFF"
           class="Black"
           id="path33"
           style="fill:#ffffff;fill-opacity:1" />
      </g>
    </g>
  </g>
</svg>
