<?xml version="1.0" encoding="UTF-8" standalone="no"?>
<svg
   viewBox="-2 -2.0375 32 32"
   version="1.1"
   id="svg2"
   sodipodi:docname="zoomreset.svg"
   inkscape:version="1.4 (86a8ad7, 2024-10-11)"
   xmlns:inkscape="http://www.inkscape.org/namespaces/inkscape"
   xmlns:sodipodi="http://sodipodi.sourceforge.net/DTD/sodipodi-0.dtd"
   xmlns="http://www.w3.org/2000/svg"
   xmlns:svg="http://www.w3.org/2000/svg">
  <defs
     id="defs2" />
  <sodipodi:namedview
     id="namedview2"
     pagecolor="#000000"
     bordercolor="#FFFFFF"
     borderopacity="0.25"
     inkscape:showpageshadow="2"
     inkscape:pageopacity="0.0"
     inkscape:pagecheckerboard="0"
     inkscape:deskcolor="#d1d1d1"
     inkscape:zoom="24.3125"
     inkscape:cx="15.979434"
     inkscape:cy="16"
     inkscape:window-width="1920"
     inkscape:window-height="996"
     inkscape:window-x="-9"
     inkscape:window-y="-9"
     inkscape:window-maximized="1"
     inkscape:current-layer="svg2" />
  <g
     id="Layer_1"
     transform="translate(-2, -2)"
     style="enable-background:new 0 0 32 32">
    <path
       d="M29.7, 27.3L22, 19.6L21.9, 19.5C23.2, 17.7 24, 15.4 24, 13C24, 6.9 19.1, 2 13, 2C6.9, 2 2, 6.9 2, 13C2, 19.1 6.9, 24 13, 24C15.4, 24 17.7, 23.2 19.5, 21.9C19.5, 21.9 19.5, 22 19.6, 22L27.3, 29.7C27.6, 30 28.2, 30 28.5, 29.7L29.7, 28.5C30.1, 28.2 30.1, 27.6 29.7, 27.3zM4, 13C4, 8 8, 4 13, 4C18, 4 22, 8 22, 13C22, 18 18, 22 13, 22C8, 22 4, 18 4, 13z"
       fill="#FFFFFF"
       class="Black"
       id="path1"
       style="fill:#FFFFFF;fill-opacity:1" />
  </g>
  <g
     id="g2"
     transform="translate(4, 3.96250009536743)"
     style="enable-background:new 0 0 16 16">
    <g
       id="Check_2_">
      <path
         d="M 1.9742931,7.3830334 3.3161954,6.0411311 6,8.7249358 11.367609,3.3573265 12.709512,4.6992288 6,11.40874 c 0,0 -4.0257069,-4.0928017 -4.0257069,-4.0257066 z"
         fill="#FFFFFF"
         class="Black"
         id="path2"
         style="stroke-width:0.670951;fill:#FFFFFF;fill-opacity:1" />
    </g>
  </g>
</svg>
