<?xml version="1.0" encoding="utf-8"?>
<svg xmlns="http://www.w3.org/2000/svg" height="256" width="256" viewBox="0 0 256 256">
  <g>
    <path id="path1" transform="rotate(0,128,128) translate(84.87497635186,59) scale(4.31249948591,4.31249948591)  " fill="#FF0000" d="M8.0000138,12.000005L8.0000138,30.000005 18.000014,30.000005 18.000014,12.000005z M10.000014,8.000005L10.000014,10.000005 16.000014,10.000005 16.000014,8.000005z M12.000014,4.0000048L12.000014,6.0000052 14.000014,6.0000052 14.000014,4.0000048z M0,0L9.8493311,4.6729994C10.042337,4.7539997,10.052338,5.1029997,9.8653314,5.2039995L8.2279541,6.0000052 10.000014,6.0000052 10.000014,2.0000048 16.000014,2.0000048 16.000014,6.0000052 18.000014,6.0000052 18.000014,10.000005 20.000014,10.000005 20.000014,32.000005 6.0000139,32.000005 6.0000139,10.000005 8.0000138,10.000005 8.0000138,6.1108177 0,9.9999996 0,7.8119996 2.0000672,6.7989993 2.0000672,6.8039994 5.7901946,4.9609995 2.209074,3.2609997 0,2.1809998z" />
  </g>
</svg>

