<?xml version="1.0" encoding="UTF-8" standalone="no"?>
<svg
   width="1em"
   height="1em"
   viewBox="0 0 16 16"
   class="bi bi-brush"
   fill="currentColor"
   version="1.1"
   id="svg1"
   sodipodi:docname="brush.svg"
   inkscape:export-filename="brush.png"
   inkscape:export-xdpi="192"
   inkscape:export-ydpi="192"
   inkscape:version="1.4 (86a8ad7, 2024-10-11)"
   xmlns:inkscape="http://www.inkscape.org/namespaces/inkscape"
   xmlns:sodipodi="http://sodipodi.sourceforge.net/DTD/sodipodi-0.dtd"
   xmlns="http://www.w3.org/2000/svg"
   xmlns:svg="http://www.w3.org/2000/svg">
  <defs
     id="defs1">
    <linearGradient
       id="linearGradient1"
       inkscape:swatch="gradient">
      <stop
         style="stop-color:#727272;stop-opacity:1;"
         offset="0"
         id="stop1" />
      <stop
         style="stop-color:#727272;stop-opacity:0;"
         offset="1"
         id="stop2" />
    </linearGradient>
    <filter
       inkscape:collect="always"
       style="color-interpolation-filters:sRGB"
       id="filter2"
       x="-0.041467483"
       y="-0.042384557"
       width="1.0832446"
       height="1.0842214">
      <feGaussianBlur
         inkscape:collect="always"
         stdDeviation="0.032040936"
         id="feGaussianBlur2" />
    </filter>
  </defs>
  <sodipodi:namedview
     id="namedview1"
     pagecolor="#ffffff"
     bordercolor="#000000"
     borderopacity="0.25"
     inkscape:showpageshadow="2"
     inkscape:pageopacity="0.0"
     inkscape:pagecheckerboard="0"
     inkscape:deskcolor="#d1d1d1"
     inkscape:zoom="48.3125"
     inkscape:cx="8"
     inkscape:cy="8"
     inkscape:window-width="1920"
     inkscape:window-height="991"
     inkscape:window-x="-9"
     inkscape:window-y="-9"
     inkscape:window-maximized="1"
     inkscape:current-layer="svg1" />
  <path
     fill-rule="evenodd"
     d="M 14.776568,1.3238417 A 0.58443328,0.42776482 41.669385 0 1 15.00593,1.9247153 C 13.979305,5.1048697 11.429303,9.3332986 9.4026624,11.434134 a 7.0915135,5.1904983 41.669385 0 1 -2.1980282,1.166638 c 0.017786,0.223067 0.0243,0.526055 -0.025868,0.839162 -0.1015267,0.625069 -0.450163,1.370167 -1.4803179,1.472203 A 9.48769,6.9443342 41.669385 0 1 2.5501568,14.577517 4.275714,3.1295274 41.669385 0 1 1.9488362,14.358015 1.6153736,1.182342 41.669385 0 1 1.4305054,14.041942 0.83457074,0.61084816 41.669385 0 1 1.1743659,13.724595 0.72703501,0.53213944 41.669385 0 1 1.1076029,13.284557 c 0.05862,-0.229316 0.2645832,-0.330145 0.4023691,-0.379814 0.3731507,-0.136463 0.5710798,-0.355983 0.7605852,-0.690367 0.073751,-0.129005 0.1419434,-0.267567 0.2200017,-0.426045 l 0.088794,-0.179236 c 0.1146835,-0.230787 0.2492796,-0.487781 0.426532,-0.760841 0.4254379,-0.655144 1.0876344,-0.738434 1.6544898,-0.62694 0.1308626,0.02604 0.2542163,0.06165 0.3660152,0.100421 0.036321,-0.1617 0.085415,-0.3564837 0.1477857,-0.5687391 C 5.3438844,9.1767969 5.6246715,8.4411472 6.0653793,7.8746803 7.8777627,5.5481159 11.435931,2.6371661 14.156467,1.1938381 a 0.58443328,0.42776482 41.669385 0 1 0.620101,0.1300036 z M 5.2130885,11.369867 a 1.437706,1.0523015 41.669385 0 0 -0.447444,-0.162891 c -0.2564162,-0.05032 -0.5830466,-0.03715 -0.8294928,0.343245 a 12.869221,9.4193813 41.669385 0 0 -0.3905261,0.697181 l -0.078768,0.160317 c -0.081217,0.16384 -0.1614043,0.327832 -0.2450214,0.476752 -0.1613966,0.284131 -0.3534055,0.540454 -0.6448073,0.741378 a 8.3305121,6.0973597 41.669385 0 0 2.716708,0.282828 c 0.5533615,-0.05364 0.7769936,-0.438368 0.8528863,-0.90405 a 3.6480325,2.670108 41.669385 0 0 0.00974,-0.726937 z m 1.4869258,0.243835 c 0.1171631,-0.02163 0.2692254,-0.05754 0.4423212,-0.112698 A 5.9238158,4.3358242 41.669385 0 0 8.546918,10.639208 C 10.183977,8.9414314 12.198725,5.7666884 13.397658,2.9702214 11.038038,4.4947691 8.4119757,6.7629025 6.9655478,8.6207808 6.5973033,9.0939862 6.3447928,9.7366769 6.1847694,10.279338 a 13.450147,9.8445799 41.669385 0 0 -0.168834,0.675385 z m -4.634278,2.271063 0.00641,-0.0039 a 0.03623486,0.02652141 41.669385 0 1 -0.00657,0.0029 z m 3.2014875,-2.484603 0.00222,0.0013 -0.00206,-3.02e-4 z"
     id="path1"
     style="fill:#727272;fill-opacity:1;stroke:#727272;stroke-opacity:1;filter:url(#filter2)" />
</svg>
