<?xml version="1.0" encoding="UTF-8" standalone="no"?>
<svg
   viewBox="-2 -2 32 32"
   version="1.1"
   id="svg2"
   sodipodi:docname="circle-gray.svg"
   inkscape:version="1.4 (86a8ad7, 2024-10-11)"
   xmlns:inkscape="http://www.inkscape.org/namespaces/inkscape"
   xmlns:sodipodi="http://sodipodi.sourceforge.net/DTD/sodipodi-0.dtd"
   xmlns="http://www.w3.org/2000/svg"
   xmlns:svg="http://www.w3.org/2000/svg">
  <defs
     id="defs2" />
  <sodipodi:namedview
     id="namedview2"
     pagecolor="#ffffff"
     bordercolor="#000000"
     borderopacity="0.25"
     inkscape:showpageshadow="2"
     inkscape:pageopacity="0.0"
     inkscape:pagecheckerboard="0"
     inkscape:deskcolor="#d1d1d1"
     inkscape:zoom="25.21875"
     inkscape:cx="16"
     inkscape:cy="16"
     inkscape:window-width="1920"
     inkscape:window-height="1009"
     inkscape:window-x="-8"
     inkscape:window-y="-8"
     inkscape:window-maximized="1"
     inkscape:current-layer="svg2" />
  <g
     id="Capa_1"
     transform="translate(0, 0)"
     style="enable-background:new 0 0 29.107 29.107;stroke:none;stroke-opacity:1;fill:#727272;fill-opacity:1">
    <g
       transform="matrix(0.961951792240143, 0, 0, 0.961951792240143, 0, 0)"
       id="g2"
       style="stroke:none;stroke-opacity:1;fill:#727272;fill-opacity:1">
      <g
         id="g1"
         style="stroke:none;stroke-opacity:1;fill:#727272;fill-opacity:1">
        <g
           id="c149_moon"
           style="stroke:none;stroke-opacity:1;fill:#727272;fill-opacity:1">
          <path
             d="M14.558, 2.079C21.435, 2.079 27.029, 7.676 27.029, 14.552C27.029, 21.429 21.435, 27.028 14.558, 27.028C7.679, 27.028 2.08, 21.429 2.08, 14.552C2.08, 7.676 7.679, 2.079 14.558, 2.079M14.558, 0C6.563, 0 0, 6.562 0, 14.552C0, 22.547 6.563, 29.107 14.558, 29.107C22.553, 29.107 29.107, 22.547 29.107, 14.552C29.106, 6.562 22.552, 0 14.558, 0L14.558, 0z"
             id="_x3C_Compound_Path_x3E__7_"
             style="stroke:none;stroke-opacity:1;fill:#727272;fill-opacity:1" />
        </g>
      </g>
    </g>
  </g>
</svg>
