<?xml version="1.0" encoding="UTF-8" standalone="no"?>
<svg
   xmlns:dc="http://purl.org/dc/elements/1.1/"
   xmlns:cc="http://creativecommons.org/ns#"
   xmlns:rdf="http://www.w3.org/1999/02/22-rdf-syntax-ns#"
   xmlns:svg="http://www.w3.org/2000/svg"
   xmlns="http://www.w3.org/2000/svg"
   xmlns:sodipodi="http://sodipodi.sourceforge.net/DTD/sodipodi-0.dtd"
   xmlns:inkscape="http://www.inkscape.org/namespaces/inkscape"
   inkscape:version="1.0 (4035a4fb49, 2020-05-01)"
   sodipodi:docname="database.svg"
   id="svg85"
   version="1.1"
   viewBox="-6 -4 32 32">
  <metadata
     id="metadata91">
    <rdf:RDF>
      <cc:Work
         rdf:about="">
        <dc:format>image/svg+xml</dc:format>
        <dc:type
           rdf:resource="http://purl.org/dc/dcmitype/StillImage" />
        <dc:title></dc:title>
      </cc:Work>
    </rdf:RDF>
  </metadata>
  <defs
     id="defs89" />
  <sodipodi:namedview
     inkscape:current-layer="svg85"
     inkscape:window-maximized="0"
     inkscape:window-y="8"
     inkscape:window-x="381"
     inkscape:cy="14.381763"
     inkscape:cx="13.334769"
     inkscape:zoom="18.340582"
     showgrid="false"
     id="namedview87"
     inkscape:window-height="762"
     inkscape:window-width="1026"
     inkscape:pageshadow="2"
     inkscape:pageopacity="0"
     guidetolerance="10"
     gridtolerance="10"
     objecttolerance="10"
     borderopacity="1"
     bordercolor="#666666"
     pagecolor="#ffffff" />
  <g
     style="enable-background:new 0 0 32 32"
     transform="translate(-6, -4)"
     id="Layer_1">
    <g
       id="Database">
      <path
         id="path69"
         class="Yellow"
         fill="#FFB115"
         d="M16, 24C10.5, 24 6, 22.2 6, 20L6, 24C6, 26.2 10.5, 28 16, 28C21.5, 28 26, 26.2 26, 24L26, 20C26, 22.2 21.5, 24 16, 24z" />
    </g>
  </g>
  <g
     style="enable-background:new 0 0 32 32"
     transform="translate(-6, -4)"
     id="g77">
    <g
       id="g75">
      <path
         style="fill:#ffb115;fill-opacity:1"
         id="path73"
         class="Yellow"
         fill="#FFB115"
         d="M16, 18C10.5, 18 6, 16.2 6, 14L6, 18C6, 20.2 10.5, 22 16, 22C21.5, 22 26, 20.2 26, 18L26, 14C26, 16.2 21.5, 18 16, 18z" />
    </g>
  </g>
  <g
     style="enable-background:new 0 0 32 32"
     transform="translate(-6, -4)"
     id="g83">
    <g
       id="g81">
      <path
         id="path79"
         class="Yellow"
         fill="#FFB115"
         d="M16, 4C10.5, 4 6, 5.8 6, 8L6, 12C6, 14.2 10.5, 16 16, 16C21.5, 16 26, 14.2 26, 12L26, 8C26, 5.8 21.5, 4 16, 4z" />
    </g>
  </g>
</svg>
