<svg viewBox="0 0 14 14" xmlns="http://www.w3.org/2000/svg"><path d="m8.86813404 1.19820285 3.92120103 3.92120144c.26422773.26422763.26422773.6931591 0 .95738673l-6.7005097 6.70008258c-.26422762.26461194-.6931591.26461194-.95738672 0l-3.92077382-3.92120164c-.2642276-.26422763-.2642276-.6927742 0-.95700183l6.70012517-6.70046728c.26461254-.26427044.6931164-.26427044.95734403 0z" fill="#26a6d1"/><path d="m4.61949218 4.48984279-3.40882735 3.40882734c-.2642276.26422764-.2642276.6927742 0 .95700183l3.92120143 3.92120164c.26422764.26461194.6931592.26461194.95738684 0l3.40882734-3.40844254z" fill="#e2574c"/><path d="m5.4604647 12.32859099 7.3710485.03300202-.00319343.63840698-7.37104929-.03300202.00326328-.63840798z"/><path d="m2.7481293 6.36120567-1.53746448 1.53746446c-.2642276.26422764-.2642276.6927743 0 .95700193l3.92120143 3.92120154c.26422764.26461194.6931592.26461194.95738684 0l1.53750717-1.53712277z" fill="#cb4e44"/><path d="m1.88551883 7.22497095 4.87743345 4.87743295-.45142803.45142813-4.87743344-4.87743305z" fill="#eae5e4"/></svg>