<?xml version='1.0' encoding='UTF-8'?>
<svg viewBox="-2.0025 -2.0025 32 32" xmlns="http://www.w3.org/2000/svg" xmlns:xlink="http://www.w3.org/1999/xlink">
  <g transform="translate(-0.002, -0.0021)">
    <g transform="matrix(0.0546867102384567, 0, 0, 0.0546867102384567, 0, 0)">
      <path d="M128, 0L192, 0C209.7, 0 224, 14.3 224, 32L224, 128L96, 128L96, 32C96, 14.3 110.3, 0 128, 0zM0, 256C0, 203 43, 160 96, 160L224, 160C277, 160 320, 203 320, 256L320, 464C320, 490.5 298.5, 512 272, 512L48, 512C21.5, 512 0, 490.5 0, 464L0, 256zM240, 336A80 80 0 1 0 80, 336A80 80 0 1 0 240, 336zM256, 64A32 32 0 1 1 320, 64A32 32 0 1 1 256, 64zM384, 32A32 32 0 1 1 384, 96A32 32 0 1 1 384, 32zM448, 64A32 32 0 1 1 512, 64A32 32 0 1 1 448, 64zM480, 128A32 32 0 1 1 480, 192A32 32 0 1 1 480, 128zM448, 256A32 32 0 1 1 512, 256A32 32 0 1 1 448, 256zM384, 128A32 32 0 1 1 384, 192A32 32 0 1 1 384, 128z" />
    </g>
  </g>
</svg>