<?xml version='1.0' encoding='UTF-8'?>
<svg viewBox="-3.1665 -1.9998 32 32" xmlns="http://www.w3.org/2000/svg" xmlns:xlink="http://www.w3.org/1999/xlink">
  <g transform="translate(-5.8333, -4.6666)" style="enable-background:new 0 0 16 16">
    <g transform="matrix(2.3333, 0, 0, 2.3333, 0, 0)">
      <g class="Black" transform="translate(1.5, -1)">
        <g>
          <path d="M12, 15L10.2, 15L8.8, 11.6L4.2, 11.6L2.9, 15L1, 15L5.6, 3L7.4, 3L12, 15zM8.3, 10.4L6.5, 4.8L4.7, 10.4L8.3, 10.4z" />
        </g>
      </g>
    </g>
  </g>
  <g transform="translate(-5.8333, -4.6666)" style="enable-background:new 0 0 16 16">
    <g transform="matrix(2.3333, 0, 0, 2.3333, 0, 0)">
      <g class="Black" transform="translate(1.5, -1)">
        <g>
          <path d="M12, 15L10.2, 15L8.8, 11.6L4.2, 11.6L2.9, 15L1, 15L5.6, 3L7.4, 3L12, 15zM8.3, 10.4L6.5, 4.8L4.7, 10.4L8.3, 10.4z" />
        </g>
      </g>
    </g>
  </g>
</svg>