<?xml version='1.0' encoding='UTF-8'?>
<svg viewBox="-2 -2.0375 32 32" xmlns="http://www.w3.org/2000/svg" >
  <g id="Layer_1" transform="translate(-2, -2)" style="enable-background:new 0 0 32 32">
    <path d="M29.7, 27.3L22, 19.6L21.9, 19.5C23.2, 17.7 24, 15.4 24, 13C24, 6.9 19.1, 2 13, 2C6.9, 2 2, 6.9 2, 13C2, 19.1 6.9, 24 13, 24C15.4, 24 17.7, 23.2 19.5, 21.9C19.5, 21.9 19.5, 22 19.6, 22L27.3, 29.7C27.6, 30 28.2, 30 28.5, 29.7L29.7, 28.5C30.1, 28.2 30.1, 27.6 29.7, 27.3zM4, 13C4, 8 8, 4 13, 4C18, 4 22, 8 22, 13C22, 18 18, 22 13, 22C8, 22 4, 18 4, 13z" fill="#727272" class="Black" />
  </g>
  <g id="Layer_1" transform="translate(4, 3.96250009536743)" style="enable-background:new 0 0 16 16">
    <g id="Check_2_">
      <path d="M0, 8L2, 6L6, 10L14, 2L16, 4L6, 14C6, 14 0, 7.9 0, 8z" fill="#727272" class="Black" />
    </g>
  </g>
</svg>